<svg xmlns="http://www.w3.org/2000/svg" xmlns:xlink="http://www.w3.org/1999/xlink" version="1.1" width="115px" height="115px" viewBox="0 0 115 115"><defs><rect id="r0" width="3" height="3" fill="#000000"/></defs><rect x="0" y="0" width="115" height="115" fill="#fefefe"/><use x="14" y="14" xlink:href="#r0"/><use x="17" y="14" xlink:href="#r0"/><use x="20" y="14" xlink:href="#r0"/><use x="23" y="14" xlink:href="#r0"/><use x="26" y="14" xlink:href="#r0"/><use x="29" y="14" xlink:href="#r0"/><use x="32" y="14" xlink:href="#r0"/><use x="38" y="14" xlink:href="#r0"/><use x="44" y="14" xlink:href="#r0"/><use x="50" y="14" xlink:href="#r0"/><use x="62" y="14" xlink:href="#r0"/><use x="71" y="14" xlink:href="#r0"/><use x="80" y="14" xlink:href="#r0"/><use x="83" y="14" xlink:href="#r0"/><use x="86" y="14" xlink:href="#r0"/><use x="89" y="14" xlink:href="#r0"/><use x="92" y="14" xlink:href="#r0"/><use x="95" y="14" xlink:href="#r0"/><use x="98" y="14" xlink:href="#r0"/><use x="14" y="17" xlink:href="#r0"/><use x="32" y="17" xlink:href="#r0"/><use x="41" y="17" xlink:href="#r0"/><use x="44" y="17" xlink:href="#r0"/><use x="47" y="17" xlink:href="#r0"/><use x="50" y="17" xlink:href="#r0"/><use x="56" y="17" xlink:href="#r0"/><use x="65" y="17" xlink:href="#r0"/><use x="74" y="17" xlink:href="#r0"/><use x="80" y="17" xlink:href="#r0"/><use x="98" y="17" xlink:href="#r0"/><use x="14" y="20" xlink:href="#r0"/><use x="20" y="20" xlink:href="#r0"/><use x="23" y="20" xlink:href="#r0"/><use x="26" y="20" xlink:href="#r0"/><use x="32" y="20" xlink:href="#r0"/><use x="38" y="20" xlink:href="#r0"/><use x="41" y="20" xlink:href="#r0"/><use x="44" y="20" xlink:href="#r0"/><use x="53" y="20" xlink:href="#r0"/><use x="56" y="20" xlink:href="#r0"/><use x="62" y="20" xlink:href="#r0"/><use x="74" y="20" xlink:href="#r0"/><use x="80" y="20" xlink:href="#r0"/><use x="86" y="20" xlink:href="#r0"/><use x="89" y="20" xlink:href="#r0"/><use x="92" y="20" xlink:href="#r0"/><use x="98" y="20" xlink:href="#r0"/><use x="14" y="23" xlink:href="#r0"/><use x="20" y="23" xlink:href="#r0"/><use x="23" y="23" xlink:href="#r0"/><use x="26" y="23" xlink:href="#r0"/><use x="32" y="23" xlink:href="#r0"/><use x="38" y="23" xlink:href="#r0"/><use x="41" y="23" xlink:href="#r0"/><use x="44" y="23" xlink:href="#r0"/><use x="50" y="23" xlink:href="#r0"/><use x="53" y="23" xlink:href="#r0"/><use x="56" y="23" xlink:href="#r0"/><use x="59" y="23" xlink:href="#r0"/><use x="65" y="23" xlink:href="#r0"/><use x="68" y="23" xlink:href="#r0"/><use x="74" y="23" xlink:href="#r0"/><use x="80" y="23" xlink:href="#r0"/><use x="86" y="23" xlink:href="#r0"/><use x="89" y="23" xlink:href="#r0"/><use x="92" y="23" xlink:href="#r0"/><use x="98" y="23" xlink:href="#r0"/><use x="14" y="26" xlink:href="#r0"/><use x="20" y="26" xlink:href="#r0"/><use x="23" y="26" xlink:href="#r0"/><use x="26" y="26" xlink:href="#r0"/><use x="32" y="26" xlink:href="#r0"/><use x="38" y="26" xlink:href="#r0"/><use x="47" y="26" xlink:href="#r0"/><use x="50" y="26" xlink:href="#r0"/><use x="59" y="26" xlink:href="#r0"/><use x="65" y="26" xlink:href="#r0"/><use x="68" y="26" xlink:href="#r0"/><use x="71" y="26" xlink:href="#r0"/><use x="74" y="26" xlink:href="#r0"/><use x="80" y="26" xlink:href="#r0"/><use x="86" y="26" xlink:href="#r0"/><use x="89" y="26" xlink:href="#r0"/><use x="92" y="26" xlink:href="#r0"/><use x="98" y="26" xlink:href="#r0"/><use x="14" y="29" xlink:href="#r0"/><use x="32" y="29" xlink:href="#r0"/><use x="44" y="29" xlink:href="#r0"/><use x="47" y="29" xlink:href="#r0"/><use x="68" y="29" xlink:href="#r0"/><use x="71" y="29" xlink:href="#r0"/><use x="74" y="29" xlink:href="#r0"/><use x="80" y="29" xlink:href="#r0"/><use x="98" y="29" xlink:href="#r0"/><use x="14" y="32" xlink:href="#r0"/><use x="17" y="32" xlink:href="#r0"/><use x="20" y="32" xlink:href="#r0"/><use x="23" y="32" xlink:href="#r0"/><use x="26" y="32" xlink:href="#r0"/><use x="29" y="32" xlink:href="#r0"/><use x="32" y="32" xlink:href="#r0"/><use x="38" y="32" xlink:href="#r0"/><use x="44" y="32" xlink:href="#r0"/><use x="50" y="32" xlink:href="#r0"/><use x="56" y="32" xlink:href="#r0"/><use x="62" y="32" xlink:href="#r0"/><use x="68" y="32" xlink:href="#r0"/><use x="74" y="32" xlink:href="#r0"/><use x="80" y="32" xlink:href="#r0"/><use x="83" y="32" xlink:href="#r0"/><use x="86" y="32" xlink:href="#r0"/><use x="89" y="32" xlink:href="#r0"/><use x="92" y="32" xlink:href="#r0"/><use x="95" y="32" xlink:href="#r0"/><use x="98" y="32" xlink:href="#r0"/><use x="44" y="35" xlink:href="#r0"/><use x="50" y="35" xlink:href="#r0"/><use x="65" y="35" xlink:href="#r0"/><use x="68" y="35" xlink:href="#r0"/><use x="74" y="35" xlink:href="#r0"/><use x="14" y="38" xlink:href="#r0"/><use x="17" y="38" xlink:href="#r0"/><use x="20" y="38" xlink:href="#r0"/><use x="23" y="38" xlink:href="#r0"/><use x="32" y="38" xlink:href="#r0"/><use x="38" y="38" xlink:href="#r0"/><use x="44" y="38" xlink:href="#r0"/><use x="47" y="38" xlink:href="#r0"/><use x="50" y="38" xlink:href="#r0"/><use x="56" y="38" xlink:href="#r0"/><use x="59" y="38" xlink:href="#r0"/><use x="65" y="38" xlink:href="#r0"/><use x="71" y="38" xlink:href="#r0"/><use x="74" y="38" xlink:href="#r0"/><use x="77" y="38" xlink:href="#r0"/><use x="86" y="38" xlink:href="#r0"/><use x="89" y="38" xlink:href="#r0"/><use x="92" y="38" xlink:href="#r0"/><use x="98" y="38" xlink:href="#r0"/><use x="14" y="41" xlink:href="#r0"/><use x="17" y="41" xlink:href="#r0"/><use x="20" y="41" xlink:href="#r0"/><use x="23" y="41" xlink:href="#r0"/><use x="29" y="41" xlink:href="#r0"/><use x="44" y="41" xlink:href="#r0"/><use x="50" y="41" xlink:href="#r0"/><use x="62" y="41" xlink:href="#r0"/><use x="71" y="41" xlink:href="#r0"/><use x="77" y="41" xlink:href="#r0"/><use x="80" y="41" xlink:href="#r0"/><use x="83" y="41" xlink:href="#r0"/><use x="86" y="41" xlink:href="#r0"/><use x="89" y="41" xlink:href="#r0"/><use x="98" y="41" xlink:href="#r0"/><use x="14" y="44" xlink:href="#r0"/><use x="17" y="44" xlink:href="#r0"/><use x="20" y="44" xlink:href="#r0"/><use x="23" y="44" xlink:href="#r0"/><use x="26" y="44" xlink:href="#r0"/><use x="32" y="44" xlink:href="#r0"/><use x="38" y="44" xlink:href="#r0"/><use x="41" y="44" xlink:href="#r0"/><use x="44" y="44" xlink:href="#r0"/><use x="47" y="44" xlink:href="#r0"/><use x="50" y="44" xlink:href="#r0"/><use x="74" y="44" xlink:href="#r0"/><use x="77" y="44" xlink:href="#r0"/><use x="80" y="44" xlink:href="#r0"/><use x="92" y="44" xlink:href="#r0"/><use x="95" y="44" xlink:href="#r0"/><use x="17" y="47" xlink:href="#r0"/><use x="20" y="47" xlink:href="#r0"/><use x="23" y="47" xlink:href="#r0"/><use x="29" y="47" xlink:href="#r0"/><use x="35" y="47" xlink:href="#r0"/><use x="38" y="47" xlink:href="#r0"/><use x="41" y="47" xlink:href="#r0"/><use x="44" y="47" xlink:href="#r0"/><use x="53" y="47" xlink:href="#r0"/><use x="59" y="47" xlink:href="#r0"/><use x="62" y="47" xlink:href="#r0"/><use x="71" y="47" xlink:href="#r0"/><use x="83" y="47" xlink:href="#r0"/><use x="20" y="50" xlink:href="#r0"/><use x="29" y="50" xlink:href="#r0"/><use x="32" y="50" xlink:href="#r0"/><use x="35" y="50" xlink:href="#r0"/><use x="38" y="50" xlink:href="#r0"/><use x="41" y="50" xlink:href="#r0"/><use x="44" y="50" xlink:href="#r0"/><use x="50" y="50" xlink:href="#r0"/><use x="53" y="50" xlink:href="#r0"/><use x="59" y="50" xlink:href="#r0"/><use x="65" y="50" xlink:href="#r0"/><use x="68" y="50" xlink:href="#r0"/><use x="83" y="50" xlink:href="#r0"/><use x="92" y="50" xlink:href="#r0"/><use x="14" y="53" xlink:href="#r0"/><use x="20" y="53" xlink:href="#r0"/><use x="26" y="53" xlink:href="#r0"/><use x="29" y="53" xlink:href="#r0"/><use x="35" y="53" xlink:href="#r0"/><use x="38" y="53" xlink:href="#r0"/><use x="41" y="53" xlink:href="#r0"/><use x="47" y="53" xlink:href="#r0"/><use x="50" y="53" xlink:href="#r0"/><use x="59" y="53" xlink:href="#r0"/><use x="62" y="53" xlink:href="#r0"/><use x="65" y="53" xlink:href="#r0"/><use x="68" y="53" xlink:href="#r0"/><use x="71" y="53" xlink:href="#r0"/><use x="74" y="53" xlink:href="#r0"/><use x="80" y="53" xlink:href="#r0"/><use x="92" y="53" xlink:href="#r0"/><use x="98" y="53" xlink:href="#r0"/><use x="14" y="56" xlink:href="#r0"/><use x="17" y="56" xlink:href="#r0"/><use x="26" y="56" xlink:href="#r0"/><use x="29" y="56" xlink:href="#r0"/><use x="32" y="56" xlink:href="#r0"/><use x="41" y="56" xlink:href="#r0"/><use x="47" y="56" xlink:href="#r0"/><use x="53" y="56" xlink:href="#r0"/><use x="56" y="56" xlink:href="#r0"/><use x="62" y="56" xlink:href="#r0"/><use x="65" y="56" xlink:href="#r0"/><use x="68" y="56" xlink:href="#r0"/><use x="71" y="56" xlink:href="#r0"/><use x="74" y="56" xlink:href="#r0"/><use x="83" y="56" xlink:href="#r0"/><use x="86" y="56" xlink:href="#r0"/><use x="95" y="56" xlink:href="#r0"/><use x="98" y="56" xlink:href="#r0"/><use x="14" y="59" xlink:href="#r0"/><use x="26" y="59" xlink:href="#r0"/><use x="35" y="59" xlink:href="#r0"/><use x="41" y="59" xlink:href="#r0"/><use x="47" y="59" xlink:href="#r0"/><use x="59" y="59" xlink:href="#r0"/><use x="68" y="59" xlink:href="#r0"/><use x="74" y="59" xlink:href="#r0"/><use x="77" y="59" xlink:href="#r0"/><use x="80" y="59" xlink:href="#r0"/><use x="83" y="59" xlink:href="#r0"/><use x="86" y="59" xlink:href="#r0"/><use x="89" y="59" xlink:href="#r0"/><use x="20" y="62" xlink:href="#r0"/><use x="23" y="62" xlink:href="#r0"/><use x="26" y="62" xlink:href="#r0"/><use x="32" y="62" xlink:href="#r0"/><use x="38" y="62" xlink:href="#r0"/><use x="41" y="62" xlink:href="#r0"/><use x="44" y="62" xlink:href="#r0"/><use x="50" y="62" xlink:href="#r0"/><use x="53" y="62" xlink:href="#r0"/><use x="56" y="62" xlink:href="#r0"/><use x="71" y="62" xlink:href="#r0"/><use x="74" y="62" xlink:href="#r0"/><use x="77" y="62" xlink:href="#r0"/><use x="83" y="62" xlink:href="#r0"/><use x="86" y="62" xlink:href="#r0"/><use x="89" y="62" xlink:href="#r0"/><use x="17" y="65" xlink:href="#r0"/><use x="20" y="65" xlink:href="#r0"/><use x="26" y="65" xlink:href="#r0"/><use x="35" y="65" xlink:href="#r0"/><use x="44" y="65" xlink:href="#r0"/><use x="53" y="65" xlink:href="#r0"/><use x="56" y="65" xlink:href="#r0"/><use x="59" y="65" xlink:href="#r0"/><use x="62" y="65" xlink:href="#r0"/><use x="68" y="65" xlink:href="#r0"/><use x="77" y="65" xlink:href="#r0"/><use x="83" y="65" xlink:href="#r0"/><use x="89" y="65" xlink:href="#r0"/><use x="14" y="68" xlink:href="#r0"/><use x="23" y="68" xlink:href="#r0"/><use x="32" y="68" xlink:href="#r0"/><use x="38" y="68" xlink:href="#r0"/><use x="41" y="68" xlink:href="#r0"/><use x="59" y="68" xlink:href="#r0"/><use x="62" y="68" xlink:href="#r0"/><use x="92" y="68" xlink:href="#r0"/><use x="20" y="71" xlink:href="#r0"/><use x="23" y="71" xlink:href="#r0"/><use x="26" y="71" xlink:href="#r0"/><use x="35" y="71" xlink:href="#r0"/><use x="44" y="71" xlink:href="#r0"/><use x="47" y="71" xlink:href="#r0"/><use x="62" y="71" xlink:href="#r0"/><use x="65" y="71" xlink:href="#r0"/><use x="74" y="71" xlink:href="#r0"/><use x="77" y="71" xlink:href="#r0"/><use x="86" y="71" xlink:href="#r0"/><use x="92" y="71" xlink:href="#r0"/><use x="17" y="74" xlink:href="#r0"/><use x="23" y="74" xlink:href="#r0"/><use x="29" y="74" xlink:href="#r0"/><use x="32" y="74" xlink:href="#r0"/><use x="38" y="74" xlink:href="#r0"/><use x="41" y="74" xlink:href="#r0"/><use x="44" y="74" xlink:href="#r0"/><use x="59" y="74" xlink:href="#r0"/><use x="62" y="74" xlink:href="#r0"/><use x="65" y="74" xlink:href="#r0"/><use x="71" y="74" xlink:href="#r0"/><use x="74" y="74" xlink:href="#r0"/><use x="77" y="74" xlink:href="#r0"/><use x="80" y="74" xlink:href="#r0"/><use x="83" y="74" xlink:href="#r0"/><use x="86" y="74" xlink:href="#r0"/><use x="89" y="74" xlink:href="#r0"/><use x="92" y="74" xlink:href="#r0"/><use x="95" y="74" xlink:href="#r0"/><use x="98" y="74" xlink:href="#r0"/><use x="38" y="77" xlink:href="#r0"/><use x="41" y="77" xlink:href="#r0"/><use x="44" y="77" xlink:href="#r0"/><use x="56" y="77" xlink:href="#r0"/><use x="74" y="77" xlink:href="#r0"/><use x="86" y="77" xlink:href="#r0"/><use x="95" y="77" xlink:href="#r0"/><use x="14" y="80" xlink:href="#r0"/><use x="17" y="80" xlink:href="#r0"/><use x="20" y="80" xlink:href="#r0"/><use x="23" y="80" xlink:href="#r0"/><use x="26" y="80" xlink:href="#r0"/><use x="29" y="80" xlink:href="#r0"/><use x="32" y="80" xlink:href="#r0"/><use x="53" y="80" xlink:href="#r0"/><use x="56" y="80" xlink:href="#r0"/><use x="65" y="80" xlink:href="#r0"/><use x="68" y="80" xlink:href="#r0"/><use x="71" y="80" xlink:href="#r0"/><use x="74" y="80" xlink:href="#r0"/><use x="80" y="80" xlink:href="#r0"/><use x="86" y="80" xlink:href="#r0"/><use x="92" y="80" xlink:href="#r0"/><use x="95" y="80" xlink:href="#r0"/><use x="14" y="83" xlink:href="#r0"/><use x="32" y="83" xlink:href="#r0"/><use x="41" y="83" xlink:href="#r0"/><use x="44" y="83" xlink:href="#r0"/><use x="47" y="83" xlink:href="#r0"/><use x="50" y="83" xlink:href="#r0"/><use x="53" y="83" xlink:href="#r0"/><use x="62" y="83" xlink:href="#r0"/><use x="71" y="83" xlink:href="#r0"/><use x="74" y="83" xlink:href="#r0"/><use x="86" y="83" xlink:href="#r0"/><use x="98" y="83" xlink:href="#r0"/><use x="14" y="86" xlink:href="#r0"/><use x="20" y="86" xlink:href="#r0"/><use x="23" y="86" xlink:href="#r0"/><use x="26" y="86" xlink:href="#r0"/><use x="32" y="86" xlink:href="#r0"/><use x="47" y="86" xlink:href="#r0"/><use x="50" y="86" xlink:href="#r0"/><use x="53" y="86" xlink:href="#r0"/><use x="56" y="86" xlink:href="#r0"/><use x="59" y="86" xlink:href="#r0"/><use x="65" y="86" xlink:href="#r0"/><use x="68" y="86" xlink:href="#r0"/><use x="74" y="86" xlink:href="#r0"/><use x="77" y="86" xlink:href="#r0"/><use x="80" y="86" xlink:href="#r0"/><use x="83" y="86" xlink:href="#r0"/><use x="86" y="86" xlink:href="#r0"/><use x="89" y="86" xlink:href="#r0"/><use x="98" y="86" xlink:href="#r0"/><use x="14" y="89" xlink:href="#r0"/><use x="20" y="89" xlink:href="#r0"/><use x="23" y="89" xlink:href="#r0"/><use x="26" y="89" xlink:href="#r0"/><use x="32" y="89" xlink:href="#r0"/><use x="38" y="89" xlink:href="#r0"/><use x="47" y="89" xlink:href="#r0"/><use x="53" y="89" xlink:href="#r0"/><use x="56" y="89" xlink:href="#r0"/><use x="59" y="89" xlink:href="#r0"/><use x="65" y="89" xlink:href="#r0"/><use x="68" y="89" xlink:href="#r0"/><use x="71" y="89" xlink:href="#r0"/><use x="77" y="89" xlink:href="#r0"/><use x="83" y="89" xlink:href="#r0"/><use x="86" y="89" xlink:href="#r0"/><use x="92" y="89" xlink:href="#r0"/><use x="98" y="89" xlink:href="#r0"/><use x="14" y="92" xlink:href="#r0"/><use x="20" y="92" xlink:href="#r0"/><use x="23" y="92" xlink:href="#r0"/><use x="26" y="92" xlink:href="#r0"/><use x="32" y="92" xlink:href="#r0"/><use x="38" y="92" xlink:href="#r0"/><use x="44" y="92" xlink:href="#r0"/><use x="53" y="92" xlink:href="#r0"/><use x="62" y="92" xlink:href="#r0"/><use x="68" y="92" xlink:href="#r0"/><use x="83" y="92" xlink:href="#r0"/><use x="89" y="92" xlink:href="#r0"/><use x="98" y="92" xlink:href="#r0"/><use x="14" y="95" xlink:href="#r0"/><use x="32" y="95" xlink:href="#r0"/><use x="38" y="95" xlink:href="#r0"/><use x="41" y="95" xlink:href="#r0"/><use x="56" y="95" xlink:href="#r0"/><use x="59" y="95" xlink:href="#r0"/><use x="74" y="95" xlink:href="#r0"/><use x="80" y="95" xlink:href="#r0"/><use x="83" y="95" xlink:href="#r0"/><use x="86" y="95" xlink:href="#r0"/><use x="89" y="95" xlink:href="#r0"/><use x="95" y="95" xlink:href="#r0"/><use x="14" y="98" xlink:href="#r0"/><use x="17" y="98" xlink:href="#r0"/><use x="20" y="98" xlink:href="#r0"/><use x="23" y="98" xlink:href="#r0"/><use x="26" y="98" xlink:href="#r0"/><use x="29" y="98" xlink:href="#r0"/><use x="32" y="98" xlink:href="#r0"/><use x="38" y="98" xlink:href="#r0"/><use x="47" y="98" xlink:href="#r0"/><use x="53" y="98" xlink:href="#r0"/><use x="62" y="98" xlink:href="#r0"/><use x="71" y="98" xlink:href="#r0"/><use x="74" y="98" xlink:href="#r0"/><use x="80" y="98" xlink:href="#r0"/><use x="95" y="98" xlink:href="#r0"/></svg>